<svg width="141" height="141" viewBox="0 0 141 141" fill="none" xmlns="http://www.w3.org/2000/svg">
<g clip-path="url(#clip0)">
<rect width="141" height="141" fill="#282C34"/>
<mask id="mask0" mask-type="alpha" maskUnits="userSpaceOnUse" x="6" y="25" width="128" height="84">
<rect x="6.47061" y="25" width="127.235" height="84" fill="#C4C4C4"/>
</mask>
<g mask="url(#mask0)">
<path d="M19.305 93.3045C19.7728 94.9322 25.4572 104.834 28.0883 109H118.702L110.224 72.9585C110.419 69.6644 109.873 61.9135 106.131 57.263C112.212 55.1702 129.519 34.8823 137.412 25L121.595 23.4377L84.9118 38.5882L47.37 39.2422C45.1287 37.692 33.0475 27.5578 31.1765 25C28.8377 21.8028 3.03783 11.4644 9.55885 27.4706C16.353 44.1471 27.783 52.3218 26.6136 54.6471C25.4442 56.9723 18.7203 91.2699 19.305 93.3045Z" fill="#61DAFB"/>
<path d="M35.1231 79.7397C34.8228 77.2651 27.6171 76.6465 24.915 76.9558C18.9102 83.4515 21.9126 89.9471 23.1136 91.4937C24.3145 93.0403 31.5202 96.1334 34.5226 92.4216C37.525 88.7098 35.4233 82.2142 35.1231 79.7397Z" fill="#282C34"/>
<path d="M89.2353 66.5453C89.2353 65.3489 88.3797 63.5543 85.813 62.0588C84.6722 62.0588 83.5314 62.0588 81.8203 64.1525C80.1091 66.2462 80.6795 67.7417 80.6795 68.639C80.6795 69.5363 82.961 71.0318 84.6722 71.63C86.3834 72.2282 87.2389 71.9291 88.0945 71.0318C88.9501 70.1345 89.2353 67.7417 89.2353 66.5453Z" fill="#282C34"/>
<path d="M48.2162 66.5051C47.9317 63.8207 46.0899 61.3342 43.5294 62.6765C40.6845 64.2871 39.3968 67.3105 39.9658 68.3842C40.5348 69.458 41.3883 70.5318 42.8107 71.3372C44.2332 72.1425 46.5092 72.1425 47.6472 71.3372C48.7851 70.5318 48.5006 69.1896 48.2162 66.5051Z" fill="#282C34"/>
<path d="M102.495 80.896C101.591 79.774 98.5775 78.3715 92.5503 80.335C90.7421 81.7375 89.2354 83.4206 89.2354 86.7866C89.2354 89.4794 91.6462 91.4616 92.8517 92.1161C95.2625 93.2382 99.4816 93.5187 102.495 90.9941C105.509 88.4696 103.399 82.018 102.495 80.896Z" fill="#282C34"/>
<path d="M69.5939 88.7467C65.6621 87.354 58.29 88.0504 56.0784 89.6752C55.3412 93.6214 56.8156 97.5675 58.29 98.496C59.7644 99.4244 67.3822 101.746 69.5939 99.1923C71.8055 96.639 73.5256 90.1395 69.5939 88.7467Z" stroke="#282C34"/>
<path d="M65.3723 75.5273C64.9704 74.7873 61.7551 74.4172 59.3436 74.4172C58.1379 74.3887 56.5302 74.4172 57.334 75.8974C58.1379 77.3775 60.1474 78.1176 63.3628 78.1176C66.5781 78.1176 65.7742 76.2674 65.3723 75.5273Z" fill="#282C34"/>
<circle cx="42.2941" cy="65.7647" r="2.47059" fill="#61DAFB"/>
<circle cx="83.0588" cy="65.7647" r="2.47059" fill="#61DAFB"/>
</g>
</g>
<defs>
<clipPath id="clip0">
<rect width="141" height="141" fill="white"/>
</clipPath>
</defs>
</svg>
